<?xml version="1.0" encoding="UTF-8"?>
<!DOCTYPE svg PUBLIC "-//W3C//DTD SVG 1.1//EN" "http://www.w3.org/Graphics/SVG/1.1/DTD/svg11.dtd">
<!-- Creator: CorelDRAW -->
<svg xmlns="http://www.w3.org/2000/svg" xml:space="preserve" width="16.8952mm" height="13.1106mm" style="shape-rendering:geometricPrecision; text-rendering:geometricPrecision; image-rendering:optimizeQuality; fill-rule:evenodd; clip-rule:evenodd"
viewBox="0 0 16.895 13.1104"
 >
 <defs>
  <style type="text/css">
   <![CDATA[
    .fil0 {fill:#40C4FF}
   ]]>
  </style>
 </defs>
 <g id="Слой_x0020_1">
  <metadata id="CorelCorpID_0Corel-Layer"/>
  <path class="fil0" d="M16.6094 2.54797l-0.0150998 0c-0.289497,0.00189998 -0.334196,-0.250297 -0.339196,-0.366696l0 -1.82808c0,-0.194698 -0.158498,-0.352996 -0.352996,-0.352996l-5.22594 9.99988e-005c-1.31148,0 -1.80048,0.485794 -1.92188,0.638692l-0.0332996 0.0459995 -0.000299996 0.000499994 -0.103499 0.141798c-0.000299996,0 -0.000299996,0 -0.000299996,0 -0.138598,0.190798 -0.259597,0.109299 -0.317796,0.0470994l-0.197898 -0.246897 -0.0975988 -0.117599c-0.164598,-0.172798 -0.593193,-0.509894 -1.44248,-0.509894l-5.56753 0c-0.194998,0 -0.353196,0.158198 -0.353196,0.352996l0 1.80498c0,0.315596 -0.171498,0.379396 -0.276797,0.389695l-0.0785991 0c-0.085699,0.00499994 -0.284997,0.0549993 -0.284997,0.421995l0 8.6002c0,0.211098 0.171198,0.382095 0.382095,0.382095l5.08134 -9.99988e-005c1.62108,0 2.32747,0.611693 2.53947,0.84589l0.120899 0.149798 0.000199998 0c0,0 0.324096,0.366396 0.665692,0l0 0 0.0711992 -0.083299 0 0.000799991 0.000799991 -0.000799991 0.0901989 -0.105799c0.00259997,-0.00319996 0.0245997,-0.0274997 0.0557993,-0.0597993 0.270897,-0.263297 0.946889,-0.746691 2.26877,-0.746691l5.23664 -9.99988e-005c0.211098,0 0.381795,-0.170898 0.381795,-0.382095l0 -8.6834c0.000199998,-0.310696 -0.225497,-0.336896 -0.285497,-0.338396zm-1.14169 7.67281c0,0.169298 -0.141598,0.306696 -0.317796,0.306696l-4.30815 -9.99988e-005c-1.53328,0 -2.08988,0.692192 -2.08988,0.692192l-0.0705992 0.0946989 -0.0330996 0.0462995c-0.000299996,0 -0.000299996,0 -0.000299996,0 -0.146298,0.198398 -0.361196,0.00159998 -0.362196,0l-0.0991988 -0.123799c-0.0735991,-0.088099 -0.636892,-0.709592 -1.99968,-0.709592l-4.44235 0c-0.175398,0 -0.316996,-0.137598 -0.316996,-0.306696l0 -9.16509c0,-0.169298 0.141798,-0.306096 0.316996,-0.306096l3.44856 0c2.56537,0 2.80827,1.45708 2.82497,1.88008l0 6.37422c0,0.463295 0.220697,0.549793 0.345296,0.562493l0.185398 9.99988e-005c0.126699,-0.0126998 0.328596,-0.088099 0.328596,-0.448995l0 -6.56952 -0.00239997 0c0.0195998,-0.529994 0.225997,-1.79838 1.76898,-1.79838l4.50605 0c0.176198,0 0.317796,0.136798 0.317796,0.306096l0 9.16539z"/>
 </g>
</svg>
